<svg width="308" height="395" viewBox="0 0 308 395" fill="none" xmlns="http://www.w3.org/2000/svg" role="img" aria-label="Grazify"><path d="M147.808 0L147.409 0.399798H140.218L139.818 0.799595H135.824L135.424 1.19939H132.628L132.228 1.59919H129.432L129.032 1.99899H127.035L126.636 2.39879H124.638L124.239 2.79858H122.241L121.842 3.19838H120.244L119.844 3.59818H118.246L117.847 3.99798H116.249L115.85 4.39777H114.651L114.252 4.79757H113.053L112.654 5.19737H111.455L111.056 5.59717H109.857L109.458 5.99696H108.659L108.259 6.39676H107.061L106.661 6.79656H105.863L105.463 7.19636H104.664L104.265 7.59615H103.466L103.066 7.99595H101.868L101.468 8.39575H101.069L100.669 8.79555H99.8703L99.4708 9.19534H98.6719L98.2724 9.59514H97.4734L97.0739 9.99494H96.6745L96.275 10.3947H95.476L95.0765 10.7945H94.2776L93.8781 11.1943H93.4786L93.0791 11.5941H92.2802L91.8807 11.9939H91.4812L91.0817 12.3937H90.6822L90.2828 12.7935H89.4838L89.0843 13.1933H88.6848L88.2853 13.5931H87.8859L87.4864 13.9929H87.0869L86.6874 14.3927H86.2879L85.8885 14.7925H85.489L85.0895 15.1923H84.2905L83.8911 15.5921H83.4916L83.0921 15.9919H82.6926L82.2931 16.3917H81.8936L81.4942 16.7915H81.0947L80.6952 17.1913H80.2957L79.8962 17.5911H79.4968L78.6978 18.3907H78.2983L77.8988 18.7905H77.4994L77.0999 19.1903H76.7004L76.3009 19.5901H75.9014L75.5019 19.9899H75.1025L74.3035 20.7895H73.904L73.5045 21.1893H73.1051L72.3061 21.9889H71.9066L71.5071 22.3887H71.1077L70.7082 22.7885H70.3087L69.5097 23.5881H69.1102L68.3113 24.3877H67.9118L67.5123 24.7874H67.1128L66.3139 25.587H65.9144L65.1154 26.3866H64.716L63.917 27.1862H63.5175L62.7185 27.9858H62.3191L61.1206 29.1852H60.7211L59.9222 29.9848H59.5227L57.9248 31.584H57.5253L56.3269 32.7834H55.9274L54.3294 34.3826H53.93L51.5331 36.7814H51.1336L47.5383 40.3796H47.1388L42.345 45.1771V45.5769L37.9507 49.9747V50.3745L35.5538 52.7733V53.1731L33.5564 55.1721V55.5719L31.9585 57.1711V57.5708L30.7601 58.7702V59.17L29.1621 60.7692V61.169L28.3632 61.9686V62.3684L27.1647 63.5678V63.9676L26.3658 64.7672V65.167L25.5668 65.9666V66.3664L24.7678 67.166V67.5658L23.9689 68.3654V68.7652L23.1699 69.5648V69.9646L22.3709 70.7642V71.164L21.9715 71.5638V71.9636L21.1725 72.7632V73.163L20.773 73.5628V73.9625L20.3735 74.3623V74.7621L19.5746 75.5617V75.9615L19.1751 76.3613V76.7611L18.7756 77.1609V77.5607L18.3761 77.9605V78.3603L17.5772 79.1599V79.5597L17.1777 79.9595V80.3593L16.7782 80.7591V81.1589L16.3787 81.5587V81.9585L15.9792 82.3583V82.7581L15.5798 83.1579V83.5577L15.1803 83.9575V84.3573L14.7808 84.7571V85.1569L14.3813 85.5567V85.9565L13.9818 86.3563V86.7561L13.5824 87.1559V87.9555L13.1829 88.3553V88.7551L12.7834 89.1549V89.5547L12.3839 89.9545V90.3542L11.9844 90.754V91.5536L11.585 91.9534V92.3532L11.1855 92.753V93.5526L10.786 93.9524V94.3522L10.3865 94.752V95.5516L9.98703 95.9514V96.3512L9.58755 96.751V97.5506L9.18807 97.9504V98.75L8.78859 99.1498V99.5496L8.38911 99.9494V100.749L7.98962 101.149V101.948L7.59014 102.348V103.148L7.19066 103.548V104.347L6.79118 104.747V105.547L6.3917 105.946V107.146L5.99222 107.546V108.345L5.59274 108.745V109.944L5.19326 110.344V111.144L4.79377 111.544V112.743L4.39429 113.143V113.942L3.99481 114.342V115.541L3.59533 115.941V117.54L3.19585 117.94V119.939L2.79637 120.339V121.938L2.39689 122.338V124.737L1.99741 125.137V127.535L1.59792 127.935V130.734L1.19844 131.134V134.332L0.798962 134.732V139.529L0.399481 139.929V148.725L0 149.124V155.921L0.399481 156.321V163.517L0.798962 163.917V167.915L1.19844 168.315V171.513L1.59792 171.913V174.712L1.99741 175.111V177.51L2.39689 177.91V179.909L2.79637 180.309V181.908L3.19585 182.308V183.507L3.59533 183.907V185.106L3.99481 185.506V186.705L4.39429 187.105V188.305L4.79377 188.704V189.904L5.19326 190.304V191.103L5.59274 191.503V192.702L5.99222 193.102V193.902L6.3917 194.302V195.501L6.79118 195.901V196.7L7.19066 197.1V197.9L7.59014 198.3V199.499L7.98962 199.899V200.698L8.38911 201.098V201.898L8.78859 202.298V203.497L9.18807 203.897V204.696L9.58755 205.096V205.896L9.98703 206.296V207.095L10.3865 207.495V208.295L10.786 208.694V209.094L11.1855 209.494V210.294L11.585 210.693V211.093L11.9844 211.493V212.293L12.3839 212.692V213.092L12.7834 213.492V214.291L13.1829 214.691V215.091L13.5824 215.491V215.891L13.9818 216.29V216.69L14.3813 217.09V217.89L14.7808 218.289V218.689L15.1803 219.089V219.489L15.5798 219.889V220.288L15.9792 220.688V221.088L16.3787 221.488V221.888L16.7782 222.287V222.687L17.1777 223.087V223.487L17.5772 223.887V224.286L17.9767 224.686V225.086L18.7756 225.886V226.285L19.1751 226.685V227.085L19.5746 227.485V227.885L19.9741 228.284V228.684L20.773 229.484V229.884L21.1725 230.283V230.683L21.9715 231.483V231.883L22.3709 232.282V232.682L23.1699 233.482V233.882L23.5694 234.281V234.681L24.3684 235.481V235.881L25.1673 236.68V237.08L25.9663 237.88V238.279L26.7652 239.079V239.479L27.9637 240.678V241.078L29.1621 242.277V242.677L30.3606 243.877V244.276L31.559 245.476V245.875L33.1569 247.475V247.874L34.3554 249.074V249.474L35.9533 251.073V251.473L37.5512 253.072V253.472L39.1492 255.071V255.471L40.7471 257.07V257.47L41.9455 258.669V259.069L43.5435 260.668V261.068L45.5409 263.067V263.467L46.7393 264.666V265.066L48.3372 266.665V267.065L49.9352 268.664V269.064L51.5331 270.663V271.063L53.131 272.662V273.062L54.7289 274.661V275.061L56.3269 276.66V277.06L58.3243 279.059V279.458L59.9222 281.058V281.457L61.5201 283.057V283.456L63.118 285.056V285.455L64.716 287.055V287.454L66.3139 289.054V289.453L67.9118 291.053V291.452L69.5097 293.052V293.451L71.1077 295.051V295.45L72.7056 297.05V297.449L74.3035 299.049V299.448L75.9014 301.048V301.447L77.4994 303.047V303.446L79.4968 305.445V305.845L80.6952 307.045V307.444L82.2931 309.044V309.443L84.2905 311.442V311.842L85.8885 313.441V313.841L87.4864 315.44V315.84L89.0843 317.439V317.839L90.6822 319.438V319.838L92.2802 321.437V321.837L93.8781 323.436V323.836L95.476 325.435V325.835L97.0739 327.434V327.834L98.6719 329.433V329.833L100.27 331.432V331.832L101.868 333.431V333.831L103.466 335.43V335.83L105.463 337.829V338.229L107.061 339.828V340.228L108.659 341.827V342.227L110.257 343.826V344.226L111.855 345.825V346.225L113.453 347.824V348.224L115.051 349.823V350.223L116.649 351.822V352.222L118.246 353.821V354.221L119.844 355.82V356.22L121.442 357.819V358.219L123.04 359.818V360.218L124.638 361.817V362.217L126.636 364.216V364.615L127.834 365.815V366.215L129.432 367.814V368.214L131.03 369.813V370.213L133.027 372.212V372.611L134.625 374.211V374.61L136.223 376.21V376.609L137.821 378.208V378.608L139.419 380.207V380.607L141.017 382.206V382.606L142.615 384.205V384.605L144.213 386.204V386.604L145.811 388.203V388.603L147.409 390.202V390.602L150.205 393.401H150.604L151.004 393.801H151.403L151.803 394.2H152.602L153.001 394.6H154.2L154.599 395H156.197L156.597 394.6H157.795L158.195 394.2H158.994L159.393 393.801H159.792L160.192 393.401H160.591L163.388 390.602V390.202L164.986 388.603V388.203L166.584 386.604V386.204L168.182 384.605V384.205L169.78 382.606V382.206L170.978 381.007V380.607L172.576 379.008V378.608L174.174 377.009V376.609L175.772 375.01V374.61L176.97 373.411V373.011L178.568 371.412V371.012L180.166 369.413V369.013L181.764 367.414V367.014L182.962 365.815V365.415L184.56 363.816V363.416L186.158 361.817V361.417L187.756 359.818V359.418L189.354 357.819V357.419L190.952 355.82V355.42L192.15 354.221V353.821L193.748 352.222V351.822L195.346 350.223V349.823L196.545 348.623V348.224L198.143 346.624V346.225L199.341 345.025V344.625L200.939 343.026V342.627L202.537 341.027V340.628L203.735 339.428V339.028L205.333 337.429V337.029L206.931 335.43V335.03L208.13 333.831V333.431L209.728 331.832V331.432L211.326 329.833V329.433L212.923 327.834V327.434L214.521 325.835V325.435L216.119 323.836V323.436L217.318 322.237V321.837L218.916 320.238V319.838L220.514 318.239V317.839L221.712 316.64V316.24L223.31 314.641V314.241L224.908 312.642V312.242L226.506 310.643V310.243L228.104 308.644V308.244L229.702 306.645V306.245L230.9 305.046V304.646L232.498 303.047V302.647L233.697 301.447V301.048L235.294 299.448V299.049L236.892 297.449V297.05L238.49 295.45V295.051L240.088 293.451V293.052L241.686 291.452V291.053L242.885 289.853V289.453L244.482 287.854V287.454L245.681 286.255V285.855L247.279 284.256V283.856L248.877 282.257V281.857L250.475 280.258V279.858L252.073 278.259V277.859L253.271 276.66V276.26L254.869 274.661V274.261L256.467 272.662V272.262L257.665 271.063V270.663L259.263 269.064V268.664L260.462 267.465V267.065L262.06 265.466V265.066L263.658 263.467V263.067L265.256 261.468V261.068L266.454 259.868V259.469L268.052 257.869V257.47L269.65 255.87V255.471L270.848 254.271V253.871L272.446 252.272V251.872L273.645 250.673V250.273L274.843 249.074V248.674L276.042 247.475V247.075L277.639 245.476V245.076L278.438 244.276V243.877L279.637 242.677V242.277L280.835 241.078V240.678L281.235 240.278V239.879L282.433 238.679V238.279L283.232 237.48V237.08L283.632 236.68V236.28L284.431 235.481V235.081L284.83 234.681V234.281L285.629 233.482V233.082L286.029 232.682V232.282L286.828 231.483V231.083L287.227 230.683V230.283L288.026 229.484V229.084L288.425 228.684V228.284L289.224 227.485V227.085L289.624 226.685V226.285L290.023 225.886V225.486L290.423 225.086V224.686L290.822 224.286V223.887L291.621 223.087V222.687L292.021 222.287V221.888L292.42 221.488V221.088L292.82 220.688V220.288L293.219 219.889V219.489L293.619 219.089V218.689L294.018 218.289V217.49L294.418 217.09V216.69L294.817 216.29V215.891L295.217 215.491V215.091L295.616 214.691V214.291L296.016 213.892V213.092L296.415 212.692V212.293L296.815 211.893V211.093L297.214 210.693V210.294L297.613 209.894V209.094L298.013 208.694V207.895L298.412 207.495V206.695L298.812 206.296V205.896L299.211 205.496V204.696L299.611 204.297V203.497L300.01 203.097V202.298L300.41 201.898V200.698L300.809 200.299V199.499L301.209 199.099V198.3L301.608 197.9V197.1L302.008 196.7V195.501L302.407 195.101V194.302L302.807 193.902V193.102L303.206 192.702V191.503L303.606 191.103V189.904L304.005 189.504V188.704L304.405 188.305V187.105L304.804 186.705V185.106L305.204 184.706V182.707L305.603 182.308V180.708L306.003 180.309V178.31L306.402 177.91V175.511L306.802 175.111V172.713L307.201 172.313V168.715L307.601 168.315V164.317L308 163.917V136.331L307.601 135.931V135.132L307.201 134.732V134.332L306.802 133.932V133.532L306.003 132.733V132.333L304.804 131.134H304.405L303.606 130.334H303.206L302.807 129.934H302.407L302.008 129.534H301.608L301.209 129.135H183.761L183.362 129.534H182.962L182.563 129.934H182.163L181.764 130.334H181.364L179.767 131.933V132.333L178.968 133.133V133.532L178.568 133.932V134.732L178.169 135.132V135.531L177.769 135.931V136.731L177.37 137.131V137.93L176.97 138.33V138.73L176.571 139.13V139.929L176.171 140.329V140.729L175.772 141.129V141.928L175.372 142.328V142.728L174.973 143.128V143.927L174.573 144.327V144.727L174.174 145.127V145.926L173.774 146.326V146.726L173.375 147.126V147.925L172.975 148.325V148.725L172.576 149.124V149.924L172.176 150.324V151.123L171.777 151.523V151.923L171.377 152.323V153.122L170.978 153.522V153.922L170.578 154.322V155.121L170.179 155.521V155.921L169.78 156.321V157.12L169.38 157.52V158.32L168.981 158.72V159.119L168.581 159.519V160.319L168.182 160.719V161.118L167.782 161.518V162.318L167.383 162.718V163.117L166.983 163.517V164.317L166.584 164.717V165.116L166.184 165.516V166.316L165.785 166.716V167.115L165.385 167.515V168.315L164.986 168.715V169.114L164.586 169.514V170.714L164.187 171.113V173.112L164.586 173.512V174.312L164.986 174.712V175.111L166.983 177.11H167.383L167.782 177.51H224.508L224.908 177.91V178.31L224.508 178.71V179.509L224.109 179.909V180.708L223.709 181.108V181.508L223.31 181.908V182.308L222.911 182.707V183.507L222.511 183.907V184.307L222.112 184.706V185.106L221.712 185.506V185.906L221.313 186.306V186.705L220.913 187.105V187.505L220.514 187.905V188.305L220.114 188.704V189.104L219.315 189.904V190.304L218.916 190.703V191.103L218.117 191.903V192.303L217.717 192.702V193.102L216.918 193.902V194.302L216.119 195.101V195.501L215.32 196.301V196.7L214.122 197.9V198.3L212.923 199.499V199.899L210.926 201.898V202.298L202.936 210.294H202.537L200.54 212.293H200.14L198.942 213.492H198.542L197.344 214.691H196.944L196.145 215.491H195.746L194.947 216.29H194.547L193.748 217.09H193.349L192.949 217.49H192.55L191.751 218.289H191.351L190.952 218.689H190.553L190.153 219.089H189.754L189.354 219.489H188.955L188.156 220.288H187.756L187.357 220.688H186.957L186.558 221.088H185.759L185.359 221.488H184.96L184.56 221.888H184.161L183.761 222.287H183.362L182.962 222.687H182.163L181.764 223.087H181.364L180.965 223.487H180.166L179.767 223.887H178.968L178.568 224.286H178.169L177.769 224.686H176.97L176.571 225.086H175.372L174.973 225.486H174.174L173.774 225.886H172.576L172.176 226.285H170.978L170.578 226.685H169.38L168.981 227.085H167.383L166.983 227.485H164.986L164.586 227.885H162.189L161.79 228.284H157.396L156.996 228.684H148.607L148.208 228.284H143.813L143.414 227.885H141.017L140.617 227.485H138.62L138.22 227.085H136.623L136.223 226.685H134.625L134.226 226.285H133.027L132.628 225.886H131.429L131.03 225.486H130.231L129.831 225.086H129.032L128.633 224.686H127.834L127.435 224.286H126.636L126.236 223.887H125.437L125.038 223.487H124.239L123.839 223.087H123.44L123.04 222.687H122.241L121.842 222.287H121.442L121.043 221.888H120.643L120.244 221.488H119.844L119.445 221.088H119.045L118.646 220.688H118.246L117.847 220.288H117.447L117.048 219.889H116.649L116.249 219.489H115.85L115.45 219.089H115.051L114.651 218.689H114.252L113.852 218.289H113.453L112.654 217.49H112.254L111.855 217.09H111.455L110.656 216.29H110.257L109.458 215.491H109.058L108.259 214.691H107.86L106.661 213.492H106.262L105.064 212.293H104.664L103.066 210.693H102.667L99.8703 207.895H99.4708L96.275 204.696V204.297L92.6796 200.698V200.299L91.0817 198.699V198.3L89.8833 197.1V196.7L88.6848 195.501V195.101L87.8859 194.302V193.902L87.0869 193.102V192.702L86.6874 192.303V191.903L85.8885 191.103V190.703L85.489 190.304V189.904L84.69 189.104V188.704L84.2905 188.305V187.905L83.8911 187.505V187.105L83.4916 186.705V186.306L83.0921 185.906V185.506L82.6926 185.106V184.706L82.2931 184.307V183.907L81.8936 183.507V183.107L81.4942 182.707V182.308L81.0947 181.908V181.508L80.6952 181.108V180.309L80.2957 179.909V179.509L79.8962 179.109V178.31L79.4968 177.91V177.51L79.0973 177.11V176.311L78.6978 175.911V175.111L78.2983 174.712V173.912L77.8988 173.512V172.713L77.4994 172.313V171.113L77.0999 170.714V169.514L76.7004 169.114V167.915L76.3009 167.515V165.916L75.9014 165.516V163.917L75.5019 163.517V161.518L75.1025 161.118V158.32L74.703 157.92V143.128L75.1025 142.728V139.529L75.5019 139.13V137.131L75.9014 136.731V135.132L76.3009 134.732V133.532L76.7004 133.133V131.933L77.0999 131.533V130.334L77.4994 129.934V129.135L77.8988 128.735V127.935L78.2983 127.535V126.336L78.6978 125.936V125.536L79.0973 125.137V124.337L79.4968 123.937V123.138L79.8962 122.738V122.338L80.2957 121.938V121.538L80.6952 121.139V120.339L81.0947 119.939V119.539L81.4942 119.14V118.74L81.8936 118.34V117.94L82.2931 117.54V117.141L82.6926 116.741V116.341L83.0921 115.941V115.541L83.4916 115.142V114.742L84.2905 113.942V113.543L84.69 113.143V112.743L85.0895 112.343V111.943L85.8885 111.144V110.744L86.6874 109.944V109.545L87.0869 109.145V108.745L87.8859 107.945V107.546L89.0843 106.346V105.946L90.2828 104.747V104.347L91.4812 103.148V102.748L93.4786 100.749V100.349L102.267 91.5536H102.667L104.664 89.5547H105.064L106.262 88.3553H106.661L107.86 87.1559H108.259L109.058 86.3563H109.458L110.257 85.5567H110.656L111.455 84.7571H111.855L112.254 84.3573H112.654L113.053 83.9575H113.453L114.252 83.1579H114.651L115.051 82.7581H115.45L115.85 82.3583H116.249L116.649 81.9585H117.048L117.447 81.5587H117.847L118.246 81.1589H118.646L119.045 80.7591H119.445L119.844 80.3593H120.244L120.643 79.9595H121.043L121.442 79.5597H122.241L122.641 79.1599H123.04L123.44 78.7601H123.839L124.239 78.3603H125.038L125.437 77.9605H126.236L126.636 77.5607H127.435L127.834 77.1609H128.633L129.032 76.7611H129.831L130.231 76.3613H131.03L131.429 75.9615H132.628L133.027 75.5617H134.226L134.625 75.1619H135.824L136.223 74.7621H137.821L138.22 74.3623H140.218L140.617 73.9625H143.014L143.414 73.5628H147.009L147.409 73.163H156.996L157.396 73.5628H161.39L161.79 73.9625H164.187L164.586 74.3623H166.584L166.983 74.7621H168.182L168.581 75.1619H169.78L170.179 75.5617H171.377L171.777 75.9615H172.975L173.375 76.3613H174.573L174.973 76.7611H175.372L175.772 77.1609H176.97L177.37 77.5607H178.169L178.568 77.9605H178.968L179.367 78.3603H180.166L180.566 78.7601H181.364L181.764 79.1599H182.163L182.563 79.5597H182.962L183.362 79.9595H183.761L184.161 80.3593H184.96L185.359 80.7591H185.759L186.158 81.1589H186.558L186.957 81.5587H187.357L187.756 81.9585H188.156L188.555 82.3583H188.955L189.354 82.7581H189.754L190.553 83.5577H190.952L191.351 83.9575H191.751L192.15 84.3573H192.55L193.349 85.1569H193.748L194.547 85.9565H194.947L195.346 86.3563H195.746L196.944 87.5557H197.344L198.143 88.3553H198.542L199.741 89.5547H200.14L201.738 91.1538H202.137L203.735 92.753H204.135L213.722 102.348H214.122L214.521 102.748H214.921L215.32 103.148H216.119L216.519 103.548H220.514L220.913 103.148H221.712L222.511 102.348H222.911L224.109 101.149H224.508L225.707 99.9494H226.106L227.704 98.3502H228.104L229.702 96.751H230.101L231.3 95.5516H231.699L232.898 94.3522H233.297L234.895 92.753H235.294L236.493 91.5536H236.892L238.49 89.9545H238.89L240.088 88.7551H240.488L241.686 87.5557H242.086L243.684 85.9565H244.083L245.281 84.7571H245.681L247.279 83.1579H247.678L248.877 81.9585H249.276L250.475 80.7591H250.874L252.472 79.1599H252.872L254.47 77.5607H254.869L256.067 76.3613H256.467L257.665 75.1619H258.065L259.663 73.5628H260.062L261.261 72.3634H261.66L263.258 70.7642H263.658L264.856 69.5648H265.256L266.454 68.3654H266.853L268.451 66.7662H268.851L270.449 65.167V64.7672L271.248 63.9676V63.5678L271.647 63.168V62.7682L272.047 62.3684V61.5688L272.446 61.169V56.7713L272.047 56.3715V55.5719L271.647 55.1721V54.7723L270.449 53.5729V53.1731L268.451 51.1741V50.7743L264.856 47.1761V46.7763L264.457 46.3765H264.057L263.658 45.9767V45.5769L262.06 43.9777H261.66L256.866 39.1802H256.467L254.07 36.7814H253.671L251.673 34.7824H251.274L249.676 33.1832H249.276L247.678 31.584H247.279L246.08 30.3846H245.681L244.482 29.1852H244.083L242.885 27.9858H242.485L241.686 27.1862H241.287L240.488 26.3866H240.088L238.89 25.1872H238.49L238.091 24.7874H237.691L236.892 23.9879H236.493L235.694 23.1883H235.294L234.495 22.3887H234.096L233.697 21.9889H233.297L232.498 21.1893H232.099L231.699 20.7895H231.3L230.501 19.9899H230.101L229.702 19.5901H229.302L228.903 19.1903H228.503L227.704 18.3907H227.305L226.905 17.9909H226.506L226.106 17.5911H225.707L225.307 17.1913H224.908L224.508 16.7915H224.109L223.709 16.3917H223.31L222.911 15.9919H222.511L222.112 15.5921H221.712L221.313 15.1923H220.913L220.514 14.7925H220.114L219.715 14.3927H219.315L218.916 13.9929H218.516L218.117 13.5931H217.717L217.318 13.1933H216.918L216.519 12.7935H215.72L215.32 12.3937H214.921L214.521 11.9939H214.122L213.722 11.5941H212.923L212.524 11.1943H212.125L211.725 10.7945H210.926L210.527 10.3947H210.127L209.728 9.99494H208.929L208.529 9.59514H207.73L207.331 9.19534H206.532L206.132 8.79555H205.733L205.333 8.39575H204.534L204.135 7.99595H202.936L202.537 7.59615H201.738L201.339 7.19636H200.54L200.14 6.79656H198.942L198.542 6.39676H197.344L196.944 5.99696H196.145L195.746 5.59717H194.947L194.547 5.19737H192.949L192.55 4.79757H191.351L190.952 4.39777H189.754L189.354 3.99798H188.156L187.756 3.59818H186.158L185.759 3.19838H184.161L183.761 2.79858H181.764L181.364 2.39879H179.767L179.367 1.99899H176.97L176.571 1.59919H174.174L173.774 1.19939H170.179L169.78 0.799595H165.785L165.385 0.399798H157.795L157.396 0H147.808Z" fill="#1B8A4B"/></svg>
