<svg role="img" aria-label="Grazify" width="408" height="122" viewBox="0 0 408 122" fill="none" xmlns="http://www.w3.org/2000/svg">
<path d="M100.172 98.176C100.172 102.272 97.8251 104.32 93.1318 104.32C88.2678 104.32 85.8358 102.272 85.8358 98.176V45.184C85.8358 38.1867 87.9264 33.3227 92.1078 30.592C96.2891 27.8613 101.11 26.496 106.572 26.496H121.164C124.321 26.496 125.9 28.5013 125.9 32.512C126.07 36.5227 124.492 38.528 121.164 38.528H107.596C104.524 38.528 102.518 39.1253 101.58 40.32C100.641 41.5147 100.172 43.1787 100.172 45.312V98.176ZM156.051 103.552C153.405 103.552 150.888 103.211 148.499 102.528C146.109 101.76 143.805 100.693 141.587 99.328V99.456C137.405 96.8107 135.315 91.9467 135.315 84.864V78.592C135.315 75.0933 135.912 72.064 137.107 69.504C138.387 66.8587 140.136 64.768 142.355 63.232H142.227C144.36 61.7813 146.621 60.7147 149.011 60.032C151.4 59.264 153.704 58.88 155.923 58.88H184.211V46.976C184.211 44.8427 183.528 42.9227 182.163 41.216C180.883 39.424 178.664 38.528 175.507 38.528H160.531C157.288 38.528 155.027 39.3387 153.747 40.96C152.552 42.496 151.955 44.3307 151.955 46.464V47.488C151.955 51.9253 149.565 54.144 144.787 54.144C140.008 54.144 137.619 51.9253 137.619 47.488V46.336C137.619 42.8373 138.216 39.8933 139.411 37.504C140.691 35.1147 142.397 33.1093 144.531 31.488H144.403C146.621 30.0373 148.925 28.8427 151.315 27.904C153.789 26.9653 156.136 26.496 158.355 26.496H177.811C179.944 26.496 182.205 26.9653 184.595 27.904C187.069 28.8427 189.373 30.0373 191.507 31.488H191.379C193.597 33.1093 195.304 35.2427 196.499 37.888C197.693 40.448 198.291 43.4347 198.291 46.848V98.176C198.291 102.272 195.944 104.32 191.251 104.32C190.312 104.32 189.416 104.277 188.563 104.192C187.795 104.107 187.069 103.893 186.387 103.552C185.789 103.125 185.277 102.571 184.851 101.888C184.509 101.12 184.339 100.139 184.339 98.944L184.211 70.912H158.355C156.477 70.912 155.027 71.1253 154.003 71.552C152.979 71.9787 152.168 72.6613 151.571 73.6C150.888 75.0507 150.376 76.2027 150.035 77.056C149.779 77.824 149.651 78.72 149.651 79.744V84.736C149.651 86.9547 150.291 88.6613 151.571 89.856C152.936 90.9653 155.24 91.52 158.483 91.52H172.819C175.976 91.52 177.555 93.5253 177.555 97.536C177.555 99.2427 177.171 100.693 176.403 101.888C175.635 102.997 174.44 103.552 172.819 103.552H156.051ZM213.952 38.528C210.88 38.528 209.258 36.5227 209.088 32.512C209.088 28.5013 210.709 26.496 213.952 26.496H258.368C261.098 26.496 263.232 26.9653 264.768 27.904C266.389 28.7573 267.285 29.952 267.456 31.488C267.541 32.8533 267.498 34.2187 267.328 35.584C267.242 36.9493 266.944 37.9733 266.432 38.656L227.136 91.52H263.36C266.432 91.52 267.968 93.5253 267.968 97.536C268.138 99.584 267.797 101.12 266.944 102.144C266.09 103.083 264.896 103.552 263.36 103.552H217.408C211.861 103.552 208.874 101.931 208.448 98.688C208.192 95.7013 208.49 93.2693 209.344 91.392L248.768 38.528H213.952ZM293.312 98.176C293.312 102.272 290.965 104.32 286.272 104.32C281.493 104.32 279.104 102.272 279.104 98.176V32.128C279.104 28.032 281.493 25.984 286.272 25.984C290.965 25.984 293.312 28.032 293.312 32.128V98.176ZM296 9.856C296 12.5867 295.061 14.8907 293.184 16.768C291.306 18.6453 289.002 19.584 286.272 19.584C283.541 19.584 281.194 18.6453 279.232 16.768C277.354 14.8907 276.416 12.5867 276.416 9.856C276.416 7.04 277.354 4.69333 279.232 2.81599C281.194 0.938665 283.541 0 286.272 0C289.002 0 291.306 0.938665 293.184 2.81599C295.061 4.69333 296 7.04 296 9.856ZM328.89 98.176C328.89 102.272 326.5 104.32 321.722 104.32C317.028 104.32 314.682 102.272 314.682 98.176V38.528H308.538C305.466 38.528 303.844 36.5227 303.674 32.512C303.674 28.5013 305.295 26.496 308.538 26.496H314.682V20.352C314.682 16.8533 315.151 13.9093 316.09 11.52C317.114 9.04533 318.735 7.168 320.954 5.888V6.016C323.172 4.65066 325.434 3.58399 327.738 2.81599C330.127 2.04799 332.644 1.66399 335.29 1.66399H338.362C341.519 1.66399 343.098 3.66933 343.098 7.68C343.268 11.6907 341.69 13.696 338.362 13.696H336.314C334.692 13.696 333.37 13.8667 332.346 14.208C331.407 14.464 330.682 14.8907 330.17 15.488C329.658 16.0853 329.316 16.8107 329.146 17.664C328.975 18.5173 328.89 19.456 328.89 20.48V26.496H338.49C341.818 26.496 343.396 28.5013 343.226 32.512C343.226 36.5227 341.647 38.528 338.49 38.528H328.89V98.176ZM358.194 121.472C355.207 121.472 353.628 119.467 353.458 115.456C353.458 111.445 355.036 109.44 358.194 109.44H363.826C366.812 109.44 368.775 108.544 369.714 106.752L371.506 102.016L372.146 99.968L347.186 34.56V34.688C346.503 32.64 346.631 30.8907 347.57 29.44C348.594 27.9893 350.13 26.9227 352.178 26.24C353.714 25.8133 354.951 25.6 355.89 25.6C358.364 25.6 359.9 27.0507 360.498 29.952L370.61 55.168L379.186 76.16L392.882 30.208C393.65 27.136 395.442 25.6 398.258 25.6C398.94 25.6 400.05 25.8133 401.586 26.24C403.634 26.8373 405.084 27.8187 405.938 29.184C406.876 30.5493 407.09 32.1707 406.578 34.048C402.738 47.104 398.812 60.2453 394.802 73.472C390.876 86.6987 386.994 99.7973 383.154 112.768C382.727 113.707 382.044 114.645 381.106 115.584C380.252 116.608 379.1 117.547 377.65 118.4C376.199 119.339 374.407 120.064 372.274 120.576C370.14 121.173 367.666 121.472 364.85 121.472H358.194Z" fill="#101914"/>
<path d="M52.6078 57.344C52.6078 53.1627 55.1678 51.072 60.2878 51.072C65.3224 51.072 67.8398 53.0773 67.8398 57.088V83.072C67.8398 89.984 65.5358 95.1467 60.9278 98.56C58.7091 100.181 56.4051 101.461 54.0158 102.4C51.7118 103.253 49.4504 103.68 47.2318 103.68H20.6078C18.3891 103.68 16.0851 103.253 13.6958 102.4C11.3918 101.461 9.13043 100.181 6.91177 98.56C4.6931 96.8533 2.98643 94.7627 1.79177 92.288C0.5971 89.728 -0.00023365 86.656 -0.00023365 83.072V22.272C-0.00023365 18.7733 0.5971 15.744 1.79177 13.184C3.07177 10.624 4.77843 8.53333 6.91177 6.91199H6.78377C9.00243 5.46133 11.3064 4.26667 13.6958 3.328C16.0851 2.38933 18.3891 1.92 20.6078 1.92H45.9518C48.1704 1.92 50.4744 2.38933 52.8638 3.328C55.2531 4.26667 57.5571 5.46133 59.7758 6.91199H59.6478C64.1704 10.24 66.4318 15.36 66.4318 22.272V31.104C66.4318 35.2 63.9144 37.248 58.8798 37.248C53.8451 37.248 51.3278 35.2 51.3278 31.104V23.424C51.3278 21.2907 50.6878 19.328 49.4078 17.536C48.1278 15.744 45.9091 14.848 42.7518 14.848H23.9358C20.6931 14.848 18.4318 15.744 17.1518 17.536C15.8718 19.328 15.2318 21.2907 15.2318 23.424V82.048C15.2318 83.1573 15.3598 84.224 15.6158 85.248C15.9571 86.272 16.4691 87.2107 17.1518 88.064C17.8344 88.832 18.7304 89.472 19.8398 89.984C20.9491 90.496 22.3144 90.752 23.9358 90.752H44.0318C47.1891 90.752 49.4078 89.856 50.6878 88.064C51.9678 86.272 52.6078 84.2667 52.6078 82.048V57.344ZM46.5918 55.936C46.5918 57.3867 46.2931 58.7947 45.6958 60.16C45.1838 61.44 44.4158 62.5493 43.3918 63.488C42.4531 64.4267 41.3438 65.1947 40.0638 65.792C38.7838 66.304 37.3758 66.56 35.8398 66.56C32.9384 66.56 30.4638 65.536 28.4158 63.488C26.3678 61.44 25.3438 58.9227 25.3438 55.936C25.3438 53.0347 26.3678 50.56 28.4158 48.512C30.4638 46.464 32.9384 45.44 35.8398 45.44C37.3758 45.44 38.7838 45.7387 40.0638 46.336C41.3438 46.848 42.4531 47.5733 43.3918 48.512C44.4158 49.4507 45.1838 50.56 45.6958 51.84C46.2931 53.12 46.5918 54.4853 46.5918 55.936Z" fill="#1B8A4B"/>
</svg>
